<svg width="624" height="408" viewBox="0 0 624 408" fill="none" xmlns="http://www.w3.org/2000/svg">
<g clip-path="url(#clip0_4_108)">
<path d="M0 335.315C6.15893 342.603 12.8205 349.452 19.936 355.812H591.77C598.886 349.452 605.548 342.603 611.706 335.315H0Z" fill="#3F3D56"/>
<path d="M281.238 266.774V339.386H332.177V266.774C332.178 266.252 332.011 265.743 331.701 265.322C331.391 264.902 330.954 264.592 330.454 264.438C330.219 264.36 329.972 264.322 329.724 264.324H283.698C283.376 264.324 283.056 264.387 282.758 264.509C282.459 264.632 282.188 264.812 281.96 265.04C281.731 265.267 281.55 265.538 281.426 265.835C281.302 266.133 281.238 266.452 281.238 266.774ZM301.117 291.724C301.131 290.292 301.71 288.924 302.728 287.917C303.746 286.909 305.122 286.344 306.555 286.344C307.989 286.344 309.364 286.909 310.382 287.917C311.401 288.924 311.979 290.292 311.993 291.724V300.149C311.986 301.584 311.409 302.959 310.39 303.971C309.371 304.983 307.993 305.552 306.555 305.552C305.118 305.552 303.739 304.983 302.72 303.971C301.701 302.959 301.125 301.584 301.117 300.149V291.724Z" fill="#2F2E41"/>
<path d="M281.082 337.064V344.066C281.083 344.429 281.228 344.777 281.484 345.034C281.74 345.291 282.087 345.437 282.451 345.44H330.965C331.328 345.438 331.676 345.292 331.933 345.035C332.189 344.778 332.333 344.429 332.333 344.066V337.064H281.082Z" fill="#3F3D56"/>
<path d="M201.104 157.374V289.954C201.105 291.643 201.778 293.263 202.974 294.458C204.171 295.653 205.793 296.324 207.485 296.326H404.222C405.914 296.324 407.536 295.653 408.732 294.458C409.928 293.263 410.601 291.643 410.602 289.954V157.374C410.598 155.686 409.925 154.068 408.729 152.875C407.533 151.682 405.912 151.011 404.222 151.009H207.485C205.794 151.011 204.174 151.682 202.978 152.875C201.782 154.068 201.108 155.686 201.104 157.374Z" fill="#3F3D56"/>
<path d="M205.719 159.024V288.318C205.721 289.221 206.081 290.086 206.72 290.725C207.359 291.363 208.226 291.722 209.13 291.724H402.584C403.488 291.722 404.354 291.363 404.994 290.725C405.633 290.086 405.993 289.221 405.994 288.318V159.024C405.994 158.12 405.635 157.253 404.996 156.613C404.356 155.973 403.489 155.613 402.584 155.611H209.13C208.225 155.613 207.357 155.973 206.718 156.613C206.079 157.253 205.72 158.12 205.719 159.024Z" fill="#FFD900"/>
<path d="M245.166 347.089C245.363 347.336 245.613 347.535 245.898 347.671C246.183 347.807 246.495 347.877 246.811 347.875H361.904C362.219 347.875 362.529 347.804 362.813 347.669C363.097 347.533 363.348 347.337 363.546 347.092C363.744 346.848 363.886 346.563 363.96 346.258C364.034 345.952 364.039 345.634 363.974 345.326L362.187 336.852C362.113 336.506 361.954 336.184 361.724 335.916C361.493 335.648 361.199 335.441 360.869 335.315C360.629 335.221 360.374 335.173 360.117 335.174H248.59C248.333 335.173 248.078 335.221 247.839 335.315C247.508 335.441 247.214 335.648 246.984 335.916C246.754 336.184 246.594 336.506 246.52 336.852L244.734 345.326C244.67 345.634 244.676 345.952 244.751 346.256C244.826 346.561 244.967 346.846 245.166 347.089Z" fill="#2F2E41"/>
<path d="M356.101 338.824H358.954C359.145 338.824 359.3 338.669 359.3 338.478V337.046C359.3 336.855 359.145 336.7 358.954 336.7H356.101C355.91 336.7 355.755 336.855 355.755 337.046V338.478C355.755 338.669 355.91 338.824 356.101 338.824Z" fill="#3F3D56"/>
<path d="M349.011 338.824H351.864C352.055 338.824 352.21 338.669 352.21 338.478V337.046C352.21 336.855 352.055 336.7 351.864 336.7H349.011C348.82 336.7 348.665 336.855 348.665 337.046V338.478C348.665 338.669 348.82 338.824 349.011 338.824Z" fill="#3F3D56"/>
<path d="M341.922 338.824H344.774C344.966 338.824 345.121 338.669 345.121 338.478V337.046C345.121 336.855 344.966 336.7 344.774 336.7H341.922C341.731 336.7 341.576 336.855 341.576 337.046V338.478C341.576 338.669 341.731 338.824 341.922 338.824Z" fill="#3F3D56"/>
<path d="M334.832 338.824H337.685C337.876 338.824 338.031 338.669 338.031 338.478V337.046C338.031 336.855 337.876 336.7 337.685 336.7H334.832C334.641 336.7 334.486 336.855 334.486 337.046V338.478C334.486 338.669 334.641 338.824 334.832 338.824Z" fill="#3F3D56"/>
<path d="M327.743 338.824H330.595C330.786 338.824 330.941 338.669 330.941 338.478V337.046C330.941 336.855 330.786 336.7 330.595 336.7H327.743C327.551 336.7 327.396 336.855 327.396 337.046V338.478C327.396 338.669 327.551 338.824 327.743 338.824Z" fill="#3F3D56"/>
<path d="M320.653 338.824H323.506C323.697 338.824 323.852 338.669 323.852 338.478V337.046C323.852 336.855 323.697 336.7 323.506 336.7H320.653C320.462 336.7 320.307 336.855 320.307 337.046V338.478C320.307 338.669 320.462 338.824 320.653 338.824Z" fill="#3F3D56"/>
<path d="M313.563 338.824H316.416C316.607 338.824 316.762 338.669 316.762 338.478V337.046C316.762 336.855 316.607 336.7 316.416 336.7H313.563C313.372 336.7 313.217 336.855 313.217 337.046V338.478C313.217 338.669 313.372 338.824 313.563 338.824Z" fill="#3F3D56"/>
<path d="M306.474 338.824H309.326C309.517 338.824 309.672 338.669 309.672 338.478V337.046C309.672 336.855 309.517 336.7 309.326 336.7H306.474C306.283 336.7 306.128 336.855 306.128 337.046V338.478C306.128 338.669 306.283 338.824 306.474 338.824Z" fill="#3F3D56"/>
<path d="M299.384 338.824H302.237C302.428 338.824 302.583 338.669 302.583 338.478V337.046C302.583 336.855 302.428 336.7 302.237 336.7H299.384C299.193 336.7 299.038 336.855 299.038 337.046V338.478C299.038 338.669 299.193 338.824 299.384 338.824Z" fill="#3F3D56"/>
<path d="M292.294 338.824H295.147C295.338 338.824 295.493 338.669 295.493 338.478V337.046C295.493 336.855 295.338 336.7 295.147 336.7H292.294C292.103 336.7 291.948 336.855 291.948 337.046V338.478C291.948 338.669 292.103 338.824 292.294 338.824Z" fill="#3F3D56"/>
<path d="M285.205 338.824H288.057C288.249 338.824 288.404 338.669 288.404 338.478V337.046C288.404 336.855 288.249 336.7 288.057 336.7H285.205C285.014 336.7 284.859 336.855 284.859 337.046V338.478C284.859 338.669 285.014 338.824 285.205 338.824Z" fill="#3F3D56"/>
<path d="M278.115 338.824H280.968C281.159 338.824 281.314 338.669 281.314 338.478V337.046C281.314 336.855 281.159 336.7 280.968 336.7H278.115C277.924 336.7 277.769 336.855 277.769 337.046V338.478C277.769 338.669 277.924 338.824 278.115 338.824Z" fill="#3F3D56"/>
<path d="M271.026 338.824H273.878C274.069 338.824 274.224 338.669 274.224 338.478V337.046C274.224 336.855 274.069 336.7 273.878 336.7H271.026C270.834 336.7 270.68 336.855 270.68 337.046V338.478C270.68 338.669 270.834 338.824 271.026 338.824Z" fill="#3F3D56"/>
<path d="M263.936 338.824H266.789C266.98 338.824 267.135 338.669 267.135 338.478V337.046C267.135 336.855 266.98 336.7 266.789 336.7H263.936C263.745 336.7 263.59 336.855 263.59 337.046V338.478C263.59 338.669 263.745 338.824 263.936 338.824Z" fill="#3F3D56"/>
<path d="M256.846 338.824H259.699C259.89 338.824 260.045 338.669 260.045 338.478V337.046C260.045 336.855 259.89 336.7 259.699 336.7H256.846C256.655 336.7 256.5 336.855 256.5 337.046V338.478C256.5 338.669 256.655 338.824 256.846 338.824Z" fill="#3F3D56"/>
<path d="M249.757 338.824H252.609C252.8 338.824 252.955 338.669 252.955 338.478V337.046C252.955 336.855 252.8 336.7 252.609 336.7H249.757C249.566 336.7 249.411 336.855 249.411 337.046V338.478C249.411 338.669 249.566 338.824 249.757 338.824Z" fill="#3F3D56"/>
<path d="M356.185 342.364H359.037C359.229 342.364 359.384 342.209 359.384 342.018V340.586C359.384 340.395 359.229 340.24 359.037 340.24H356.185C355.994 340.24 355.839 340.395 355.839 340.586V342.018C355.839 342.209 355.994 342.364 356.185 342.364Z" fill="#3F3D56"/>
<path d="M349.095 342.364H351.948C352.139 342.364 352.294 342.209 352.294 342.018V340.586C352.294 340.395 352.139 340.24 351.948 340.24H349.095C348.904 340.24 348.749 340.395 348.749 340.586V342.018C348.749 342.209 348.904 342.364 349.095 342.364Z" fill="#3F3D56"/>
<path d="M342.006 342.364H344.858C345.049 342.364 345.204 342.209 345.204 342.018V340.586C345.204 340.395 345.049 340.24 344.858 340.24H342.006C341.814 340.24 341.659 340.395 341.659 340.586V342.018C341.659 342.209 341.814 342.364 342.006 342.364Z" fill="#3F3D56"/>
<path d="M334.916 342.364H337.769C337.96 342.364 338.115 342.209 338.115 342.018V340.586C338.115 340.395 337.96 340.24 337.769 340.24H334.916C334.725 340.24 334.57 340.395 334.57 340.586V342.018C334.57 342.209 334.725 342.364 334.916 342.364Z" fill="#3F3D56"/>
<path d="M327.826 342.364H330.679C330.87 342.364 331.025 342.209 331.025 342.018V340.586C331.025 340.395 330.87 340.24 330.679 340.24H327.826C327.635 340.24 327.48 340.395 327.48 340.586V342.018C327.48 342.209 327.635 342.364 327.826 342.364Z" fill="#3F3D56"/>
<path d="M320.737 342.364H323.589C323.781 342.364 323.935 342.209 323.935 342.018V340.586C323.935 340.395 323.781 340.24 323.589 340.24H320.737C320.546 340.24 320.391 340.395 320.391 340.586V342.018C320.391 342.209 320.546 342.364 320.737 342.364Z" fill="#3F3D56"/>
<path d="M313.647 342.364H316.5C316.691 342.364 316.846 342.209 316.846 342.018V340.586C316.846 340.395 316.691 340.24 316.5 340.24H313.647C313.456 340.24 313.301 340.395 313.301 340.586V342.018C313.301 342.209 313.456 342.364 313.647 342.364Z" fill="#3F3D56"/>
<path d="M306.557 342.364H309.41C309.601 342.364 309.756 342.209 309.756 342.018V340.586C309.756 340.395 309.601 340.24 309.41 340.24H306.557C306.366 340.24 306.211 340.395 306.211 340.586V342.018C306.211 342.209 306.366 342.364 306.557 342.364Z" fill="#3F3D56"/>
<path d="M299.468 342.364H302.32C302.512 342.364 302.667 342.209 302.667 342.018V340.586C302.667 340.395 302.512 340.24 302.32 340.24H299.468C299.277 340.24 299.122 340.395 299.122 340.586V342.018C299.122 342.209 299.277 342.364 299.468 342.364Z" fill="#3F3D56"/>
<path d="M292.378 342.364H295.231C295.422 342.364 295.577 342.209 295.577 342.018V340.586C295.577 340.395 295.422 340.24 295.231 340.24H292.378C292.187 340.24 292.032 340.395 292.032 340.586V342.018C292.032 342.209 292.187 342.364 292.378 342.364Z" fill="#3F3D56"/>
<path d="M285.289 342.364H288.141C288.332 342.364 288.487 342.209 288.487 342.018V340.586C288.487 340.395 288.332 340.24 288.141 340.24H285.289C285.097 340.24 284.943 340.395 284.943 340.586V342.018C284.943 342.209 285.097 342.364 285.289 342.364Z" fill="#3F3D56"/>
<path d="M278.199 342.364H281.052C281.243 342.364 281.398 342.209 281.398 342.018V340.586C281.398 340.395 281.243 340.24 281.052 340.24H278.199C278.008 340.24 277.853 340.395 277.853 340.586V342.018C277.853 342.209 278.008 342.364 278.199 342.364Z" fill="#3F3D56"/>
<path d="M271.109 342.364H273.962C274.153 342.364 274.308 342.209 274.308 342.018V340.586C274.308 340.395 274.153 340.24 273.962 340.24H271.109C270.918 340.24 270.763 340.395 270.763 340.586V342.018C270.763 342.209 270.918 342.364 271.109 342.364Z" fill="#3F3D56"/>
<path d="M264.02 342.364H266.872C267.063 342.364 267.218 342.209 267.218 342.018V340.586C267.218 340.395 267.063 340.24 266.872 340.24H264.02C263.829 340.24 263.674 340.395 263.674 340.586V342.018C263.674 342.209 263.829 342.364 264.02 342.364Z" fill="#3F3D56"/>
<path d="M256.93 342.364H259.783C259.974 342.364 260.129 342.209 260.129 342.018V340.586C260.129 340.395 259.974 340.24 259.783 340.24H256.93C256.739 340.24 256.584 340.395 256.584 340.586V342.018C256.584 342.209 256.739 342.364 256.93 342.364Z" fill="#3F3D56"/>
<path d="M249.841 342.364H252.693C252.884 342.364 253.039 342.209 253.039 342.018V340.586C253.039 340.395 252.884 340.24 252.693 340.24H249.841C249.649 340.24 249.494 340.395 249.494 340.586V342.018C249.494 342.209 249.649 342.364 249.841 342.364Z" fill="#3F3D56"/>
<path d="M297.341 346.612H325.007C325.198 346.612 325.353 346.457 325.353 346.266V344.834C325.353 344.643 325.198 344.488 325.007 344.488H297.341C297.15 344.488 296.995 344.643 296.995 344.834V346.266C296.995 346.457 297.15 346.612 297.341 346.612Z" fill="#3F3D56"/>
<path d="M218.851 173.422H399.865C400.053 173.418 400.233 173.34 400.364 173.206C400.496 173.072 400.57 172.891 400.57 172.703C400.57 172.515 400.496 172.335 400.364 172.2C400.233 172.066 400.053 171.988 399.865 171.984H218.851C218.663 171.988 218.484 172.066 218.352 172.2C218.22 172.335 218.147 172.515 218.147 172.703C218.147 172.891 218.22 173.072 218.352 173.206C218.484 173.34 218.663 173.418 218.851 173.422Z" fill="#3F3D56"/>
<path d="M387.543 168.314C389.873 168.314 391.762 166.386 391.762 164.007C391.762 161.629 389.873 159.7 387.543 159.7C385.214 159.7 383.325 161.629 383.325 164.007C383.325 166.386 385.214 168.314 387.543 168.314Z" fill="#3F3D56"/>
<path d="M372.97 168.314C375.3 168.314 377.189 166.386 377.189 164.007C377.189 161.629 375.3 159.7 372.97 159.7C370.64 159.7 368.751 161.629 368.751 164.007C368.751 166.386 370.64 168.314 372.97 168.314Z" fill="#3F3D56"/>
<path d="M358.397 168.314C360.726 168.314 362.615 166.386 362.615 164.007C362.615 161.629 360.726 159.7 358.397 159.7C356.067 159.7 354.178 161.629 354.178 164.007C354.178 166.386 356.067 168.314 358.397 168.314Z" fill="#3F3D56"/>
<path d="M226.854 161.551C226.853 161.653 226.873 161.754 226.911 161.848C226.95 161.942 227.007 162.028 227.078 162.1C227.15 162.173 227.236 162.23 227.33 162.27C227.424 162.309 227.524 162.33 227.626 162.33H237.977C238.182 162.325 238.376 162.241 238.519 162.094C238.663 161.948 238.743 161.752 238.743 161.548C238.743 161.343 238.663 161.147 238.519 161.001C238.376 160.855 238.182 160.77 237.977 160.765H227.626C227.42 160.768 227.222 160.852 227.078 160.999C226.933 161.146 226.852 161.345 226.854 161.551Z" fill="#3F3D56"/>
<path d="M226.854 164.489C226.853 164.591 226.873 164.692 226.911 164.786C226.95 164.881 227.007 164.966 227.078 165.039C227.15 165.111 227.236 165.168 227.33 165.208C227.424 165.247 227.524 165.268 227.626 165.268H237.977C238.182 165.264 238.377 165.179 238.52 165.033C238.663 164.887 238.743 164.69 238.743 164.486C238.743 164.281 238.663 164.085 238.52 163.939C238.377 163.792 238.182 163.708 237.977 163.703H227.626C227.42 163.706 227.222 163.79 227.078 163.937C226.933 164.085 226.852 164.283 226.854 164.489Z" fill="#3F3D56"/>
<path d="M226.854 167.421C226.852 167.627 226.933 167.825 227.078 167.973C227.222 168.12 227.42 168.204 227.626 168.206H237.977C238.182 168.202 238.376 168.117 238.519 167.971C238.663 167.825 238.743 167.628 238.743 167.424C238.743 167.22 238.663 167.023 238.519 166.877C238.376 166.731 238.182 166.646 237.977 166.642H227.626C227.524 166.642 227.424 166.663 227.33 166.702C227.236 166.741 227.15 166.799 227.078 166.871C227.007 166.944 226.95 167.029 226.911 167.124C226.873 167.218 226.853 167.319 226.854 167.421Z" fill="#3F3D56"/>
<path d="M230.053 190.128H226.333C225.206 190.128 224.291 191.041 224.291 192.167C224.291 193.293 225.206 194.206 226.333 194.206H230.053C231.18 194.206 232.094 193.293 232.094 192.167C232.094 191.041 231.18 190.128 230.053 190.128Z" fill="#2F2E41"/>
<path d="M272.59 190.128H268.871C267.743 190.128 266.829 191.041 266.829 192.167C266.829 193.293 267.743 194.206 268.871 194.206H272.59C273.718 194.206 274.632 193.293 274.632 192.167C274.632 191.041 273.718 190.128 272.59 190.128Z" fill="#2F2E41"/>
<path d="M284.643 190.128H280.923C279.796 190.128 278.882 191.041 278.882 192.167C278.882 193.293 279.796 194.206 280.923 194.206H284.643C285.77 194.206 286.684 193.293 286.684 192.167C286.684 191.041 285.77 190.128 284.643 190.128Z" fill="#2F2E41"/>
<path d="M261.02 189.788H237.904C236.776 189.788 235.862 190.701 235.862 191.827C235.862 192.953 236.776 193.866 237.904 193.866H261.02C262.147 193.866 263.062 192.953 263.062 191.827C263.062 190.701 262.147 189.788 261.02 189.788Z" fill="#2F2E41"/>
<path d="M317.737 189.788H294.621C293.493 189.788 292.579 190.701 292.579 191.827C292.579 192.953 293.493 193.866 294.621 193.866H317.737C318.864 193.866 319.779 192.953 319.779 191.827C319.779 190.701 318.864 189.788 317.737 189.788Z" fill="#2F2E41"/>
<path d="M241.396 199.332H237.677C236.549 199.332 235.635 200.245 235.635 201.371C235.635 202.497 236.549 203.41 237.677 203.41H241.396C242.524 203.41 243.438 202.497 243.438 201.371C243.438 200.245 242.524 199.332 241.396 199.332Z" fill="#2F2E41"/>
<path d="M283.934 199.332H280.214C279.087 199.332 278.173 200.245 278.173 201.371C278.173 202.497 279.087 203.41 280.214 203.41H283.934C285.061 203.41 285.975 202.497 285.975 201.371C285.975 200.245 285.061 199.332 283.934 199.332Z" fill="#2F2E41"/>
<path d="M295.986 199.332H292.267C291.139 199.332 290.225 200.245 290.225 201.371C290.225 202.497 291.139 203.41 292.267 203.41H295.986C297.114 203.41 298.028 202.497 298.028 201.371C298.028 200.245 297.114 199.332 295.986 199.332Z" fill="#2F2E41"/>
<path d="M272.363 198.992H249.247C248.119 198.992 247.205 199.905 247.205 201.031C247.205 202.157 248.119 203.07 249.247 203.07H272.363C273.491 203.07 274.405 202.157 274.405 201.031C274.405 199.905 273.491 198.992 272.363 198.992Z" fill="#2F2E41"/>
<path d="M329.08 198.992H305.964C304.836 198.992 303.922 199.905 303.922 201.031C303.922 202.157 304.836 203.07 305.964 203.07H329.08C330.208 203.07 331.122 202.157 331.122 201.031C331.122 199.905 330.208 198.992 329.08 198.992Z" fill="#2F2E41"/>
<path d="M252.739 208.536H249.02C247.892 208.536 246.978 209.449 246.978 210.575C246.978 211.701 247.892 212.614 249.02 212.614H252.739C253.867 212.614 254.781 211.701 254.781 210.575C254.781 209.449 253.867 208.536 252.739 208.536Z" fill="#2F2E41"/>
<path d="M295.277 208.536H291.558C290.43 208.536 289.516 209.449 289.516 210.575C289.516 211.701 290.43 212.614 291.558 212.614H295.277C296.405 212.614 297.319 211.701 297.319 210.575C297.319 209.449 296.405 208.536 295.277 208.536Z" fill="#2F2E41"/>
<path d="M307.329 208.536H303.61C302.482 208.536 301.568 209.449 301.568 210.575C301.568 211.701 302.482 212.614 303.61 212.614H307.329C308.457 212.614 309.371 211.701 309.371 210.575C309.371 209.449 308.457 208.536 307.329 208.536Z" fill="#2F2E41"/>
<path d="M283.707 208.196H260.59C259.463 208.196 258.549 209.109 258.549 210.235C258.549 211.361 259.463 212.274 260.59 212.274H283.707C284.834 212.274 285.748 211.361 285.748 210.235C285.748 209.109 284.834 208.196 283.707 208.196Z" fill="#2F2E41"/>
<path d="M340.424 208.196H317.307C316.18 208.196 315.266 209.109 315.266 210.235C315.266 211.361 316.18 212.274 317.307 212.274H340.424C341.551 212.274 342.465 211.361 342.465 210.235C342.465 209.109 341.551 208.196 340.424 208.196Z" fill="#2F2E41"/>
<path d="M264.083 217.74H260.363C259.236 217.74 258.322 218.653 258.322 219.779C258.322 220.905 259.236 221.818 260.363 221.818H264.083C265.21 221.818 266.124 220.905 266.124 219.779C266.124 218.653 265.21 217.74 264.083 217.74Z" fill="#2F2E41"/>
<path d="M306.62 217.74H302.901C301.773 217.74 300.859 218.653 300.859 219.779C300.859 220.905 301.773 221.818 302.901 221.818H306.62C307.748 221.818 308.662 220.905 308.662 219.779C308.662 218.653 307.748 217.74 306.62 217.74Z" fill="#2F2E41"/>
<path d="M318.673 217.74H314.953C313.826 217.74 312.912 218.653 312.912 219.779C312.912 220.905 313.826 221.818 314.953 221.818H318.673C319.8 221.818 320.715 220.905 320.715 219.779C320.715 218.653 319.8 217.74 318.673 217.74Z" fill="#2F2E41"/>
<path d="M295.05 217.4H271.934C270.806 217.4 269.892 218.313 269.892 219.439C269.892 220.565 270.806 221.478 271.934 221.478H295.05C296.178 221.478 297.092 220.565 297.092 219.439C297.092 218.313 296.178 217.4 295.05 217.4Z" fill="#2F2E41"/>
<path d="M272.59 254.339H268.871C267.743 254.339 266.829 255.252 266.829 256.378C266.829 257.504 267.743 258.417 268.871 258.417H272.59C273.718 258.417 274.632 257.504 274.632 256.378C274.632 255.252 273.718 254.339 272.59 254.339Z" fill="#2F2E41"/>
<path d="M284.643 254.339H280.923C279.796 254.339 278.882 255.252 278.882 256.378C278.882 257.504 279.796 258.417 280.923 258.417H284.643C285.77 258.417 286.684 257.504 286.684 256.378C286.684 255.252 285.77 254.339 284.643 254.339Z" fill="#2F2E41"/>
<path d="M317.737 254.679H294.621C293.493 254.679 292.579 255.592 292.579 256.718C292.579 257.844 293.493 258.757 294.621 258.757H317.737C318.864 258.757 319.779 257.844 319.779 256.718C319.779 255.592 318.864 254.679 317.737 254.679Z" fill="#2F2E41"/>
<path d="M230.053 254.339H226.333C225.206 254.339 224.291 255.252 224.291 256.378C224.291 257.504 225.206 258.417 226.333 258.417H230.053C231.18 258.417 232.094 257.504 232.094 256.378C232.094 255.252 231.18 254.339 230.053 254.339Z" fill="#2F2E41"/>
<path d="M261.02 254.679H237.904C236.776 254.679 235.862 255.592 235.862 256.718C235.862 257.844 236.776 258.757 237.904 258.757H261.02C262.147 258.757 263.062 257.844 263.062 256.718C263.062 255.592 262.147 254.679 261.02 254.679Z" fill="#2F2E41"/>
<path d="M241.396 245.135H237.677C236.549 245.135 235.635 246.048 235.635 247.174C235.635 248.3 236.549 249.213 237.677 249.213H241.396C242.524 249.213 243.438 248.3 243.438 247.174C243.438 246.048 242.524 245.135 241.396 245.135Z" fill="#2F2E41"/>
<path d="M283.934 245.135H280.214C279.087 245.135 278.173 246.048 278.173 247.174C278.173 248.3 279.087 249.213 280.214 249.213H283.934C285.061 249.213 285.975 248.3 285.975 247.174C285.975 246.048 285.061 245.135 283.934 245.135Z" fill="#2F2E41"/>
<path d="M295.986 245.135H292.267C291.139 245.135 290.225 246.048 290.225 247.174C290.225 248.3 291.139 249.213 292.267 249.213H295.986C297.114 249.213 298.028 248.3 298.028 247.174C298.028 246.048 297.114 245.135 295.986 245.135Z" fill="#2F2E41"/>
<path d="M272.363 245.475H249.247C248.119 245.475 247.205 246.388 247.205 247.514C247.205 248.64 248.119 249.553 249.247 249.553H272.363C273.491 249.553 274.405 248.64 274.405 247.514C274.405 246.388 273.491 245.475 272.363 245.475Z" fill="#2F2E41"/>
<path d="M252.739 235.931H249.02C247.892 235.931 246.978 236.844 246.978 237.97C246.978 239.096 247.892 240.009 249.02 240.009H252.739C253.867 240.009 254.781 239.096 254.781 237.97C254.781 236.844 253.867 235.931 252.739 235.931Z" fill="#2F2E41"/>
<path d="M295.277 235.931H291.558C290.43 235.931 289.516 236.844 289.516 237.97C289.516 239.096 290.43 240.009 291.558 240.009H295.277C296.405 240.009 297.319 239.096 297.319 237.97C297.319 236.844 296.405 235.931 295.277 235.931Z" fill="#2F2E41"/>
<path d="M307.329 235.931H303.61C302.482 235.931 301.568 236.844 301.568 237.97C301.568 239.096 302.482 240.009 303.61 240.009H307.329C308.457 240.009 309.371 239.096 309.371 237.97C309.371 236.844 308.457 235.931 307.329 235.931Z" fill="#2F2E41"/>
<path d="M283.707 236.271H260.59C259.463 236.271 258.549 237.184 258.549 238.31C258.549 239.436 259.463 240.349 260.59 240.349H283.707C284.834 240.349 285.748 239.436 285.748 238.31C285.748 237.184 284.834 236.271 283.707 236.271Z" fill="#2F2E41"/>
<path d="M264.083 226.727H260.363C259.236 226.727 258.322 227.64 258.322 228.766C258.322 229.892 259.236 230.805 260.363 230.805H264.083C265.21 230.805 266.124 229.892 266.124 228.766C266.124 227.64 265.21 226.727 264.083 226.727Z" fill="#2F2E41"/>
<path d="M306.62 226.727H302.901C301.773 226.727 300.859 227.64 300.859 228.766C300.859 229.892 301.773 230.805 302.901 230.805H306.62C307.748 230.805 308.662 229.892 308.662 228.766C308.662 227.64 307.748 226.727 306.62 226.727Z" fill="#2F2E41"/>
<path d="M318.673 226.727H314.953C313.826 226.727 312.912 227.64 312.912 228.766C312.912 229.892 313.826 230.805 314.953 230.805H318.673C319.8 230.805 320.715 229.892 320.715 228.766C320.715 227.64 319.8 226.727 318.673 226.727Z" fill="#2F2E41"/>
<path d="M295.05 227.067H271.934C270.806 227.067 269.892 227.98 269.892 229.106C269.892 230.232 270.806 231.145 271.934 231.145H295.05C296.178 231.145 297.092 230.232 297.092 229.106C297.092 227.98 296.178 227.067 295.05 227.067Z" fill="#2F2E41"/>
<path d="M248.074 386.533C247.918 386.611 247.762 386.689 247.606 386.76C246.621 387.249 245.628 387.73 244.629 388.204C241.637 389.627 238.607 390.98 235.54 392.261C227.469 395.632 219.187 398.477 210.747 400.778C209.329 391.95 207.954 371.127 206.635 355.813C206.387 352.932 206.139 350.248 205.891 347.877C205.655 344.763 205.208 341.669 204.551 338.616C204.487 338.377 204.394 338.146 204.275 337.929C204.409 339.154 204.551 342.807 204.686 347.877C204.757 350.249 204.82 352.932 204.891 355.813C205.225 370.554 205.572 390.612 205.919 402.032C204.934 402.272 203.941 402.513 202.949 402.74C202.325 402.888 201.694 403.03 201.063 403.164C200.297 403.334 199.532 403.504 198.766 403.66C197.965 403.83 197.164 403.993 196.363 404.148C183.271 406.717 169.96 408.007 156.618 408C155.732 408 154.853 407.993 153.967 407.986C153.697 407.986 153.428 407.979 153.151 407.972C152.371 407.957 151.563 407.943 150.741 407.922C134.974 407.487 119.311 405.232 104.063 401.203L104.68 355.813L104.786 347.877L104.828 344.868C104.477 345.836 104.267 346.849 104.205 347.877C103.956 349.81 103.701 352.549 103.446 355.813C102.475 368.387 101.475 388.672 100.44 400.212C88.1821 396.729 79.2208 393.55 68.0192 387.956C67.5867 387.744 67.1472 387.525 66.7147 387.305C66.7927 386.76 66.8778 386.215 66.9557 385.655C68.2248 376.848 66.7289 365.385 68.1326 355.813C69.2032 348.429 70.3091 341.335 71.4222 335.317C72.7692 328.074 74.1375 322.382 75.4916 319.613C77.0513 316.42 78.6111 313.277 80.1212 310.268C80.7734 308.972 81.4139 307.7 82.0425 306.452C82.3828 305.779 82.7231 305.114 83.0563 304.462C84.5734 301.496 86.0056 298.756 87.3171 296.327C88.2388 294.621 89.0895 293.078 89.8694 291.725C90.784 290.132 91.5922 288.815 92.2586 287.817C97.1809 280.366 104.505 274.818 113.017 272.092L113.23 272.036L113.435 272.121L113.669 272.227L127.182 267.292L133.215 252.785L164.204 250.881L169.209 254.683L171.769 256.63L174.498 258.704L179.518 262.52L180.943 262.959L183.062 263.611L197.561 268.057L197.71 267.993L197.922 268.05C205.668 270.526 212.448 275.352 217.319 281.856C217.802 282.479 218.248 283.123 218.681 283.774C219.858 285.516 221.446 288.27 223.317 291.725C224.09 293.148 224.905 294.692 225.763 296.327C226.281 297.311 230.747 311.231 235.093 325.447C239.155 338.758 243.111 352.33 243.629 355.813C243.721 356.458 243.82 357.109 243.913 357.753C244.501 361.782 245.082 365.839 245.642 369.796C246.472 375.666 247.28 381.33 248.053 386.392C248.06 386.441 248.067 386.484 248.074 386.533Z" fill="#3F3D56"/>
<path opacity="0.2" d="M215.234 335.284L209.21 312.067L203.89 332.101L215.234 335.284Z" fill="black"/>
<path d="M11.2224 335.015C11.5347 335.923 12.1272 336.709 12.9148 337.26C13.7024 337.811 14.6445 338.098 15.606 338.081L34.3876 337.599C35.3561 337.58 36.2925 337.248 37.0567 336.654C37.821 336.06 38.3722 335.234 38.6278 334.301L41.2857 305.92C42.2286 306.346 43.2552 306.557 44.2902 306.536C46.1062 306.491 47.8298 305.727 49.0817 304.412C50.3336 303.097 51.0112 301.34 50.9657 299.526C50.9201 297.713 50.1549 295.992 48.8386 294.742C47.5222 293.491 45.7625 292.815 43.9464 292.86C43.5327 292.859 43.1201 292.902 42.7155 292.988C42.2756 292.513 41.7408 292.135 41.1456 291.878C40.5505 291.622 39.9082 291.493 39.26 291.499L10.3694 292.244C10.1298 292.253 9.89135 292.282 9.6568 292.332C9.02323 292.45 8.42232 292.702 7.8945 293.072C7.36668 293.441 6.9242 293.919 6.59685 294.473C6.26951 295.028 6.06489 295.646 5.99676 296.286C5.92864 296.926 5.99859 297.573 6.20191 298.184L11.2224 335.015ZM41.8307 303.993L43.722 297.229C43.9371 296.448 43.9421 295.624 43.7364 294.84C43.8282 294.84 43.9091 294.796 44.0009 294.796C45.2976 294.769 46.5521 295.257 47.4893 296.153C48.4264 297.048 48.9698 298.278 49.0001 299.573C49.0305 300.868 48.5454 302.122 47.6513 303.061C46.7571 303.999 45.5269 304.545 44.2303 304.579C43.3919 304.605 42.5623 304.402 41.8307 303.993Z" fill="#2F2E41"/>
<path d="M9.65681 292.332C10.2723 295.847 17.1924 298.318 25.5133 297.888C33.165 297.536 39.4214 294.853 40.5676 291.673C40.1434 291.548 39.7023 291.489 39.26 291.499L10.3695 292.244C10.1298 292.253 9.89136 292.282 9.65681 292.332Z" fill="#3F3D56"/>
<path d="M27.0383 319.419C27.0764 319.409 27.1125 319.393 27.1453 319.372L31.2241 316.706C31.2734 316.674 31.3139 316.63 31.342 316.578C31.37 316.526 31.3847 316.469 31.3847 316.41C31.3848 316.351 31.3701 316.293 31.3421 316.241C31.3141 316.19 31.2736 316.146 31.2243 316.114L26.9849 313.341C26.946 313.315 26.9024 313.297 26.8566 313.288C26.8107 313.28 26.7637 313.28 26.718 313.289C26.6723 313.299 26.6289 313.317 26.5903 313.343C26.5517 313.369 26.5187 313.403 26.4931 313.442C26.4675 313.481 26.4499 313.524 26.4412 313.57C26.4326 313.616 26.4331 313.663 26.4427 313.709C26.4523 313.754 26.4708 313.797 26.4972 313.836C26.5236 313.874 26.5573 313.907 26.5964 313.932L30.3829 316.409L26.7573 318.78C26.6871 318.825 26.6354 318.895 26.6115 318.975C26.5876 319.055 26.593 319.141 26.6267 319.218C26.6604 319.295 26.7203 319.357 26.7957 319.394C26.871 319.431 26.957 319.439 27.0383 319.419H27.0383Z" fill="#FFD900"/>
<path d="M20.5962 319.716C20.6646 319.698 20.7264 319.661 20.7734 319.608C20.8205 319.556 20.8508 319.49 20.8604 319.421C20.87 319.351 20.8585 319.28 20.8273 319.216C20.7962 319.153 20.7468 319.1 20.6856 319.065L16.9259 316.913L20.5598 314.217C20.5971 314.19 20.6286 314.155 20.6525 314.115C20.6764 314.075 20.6921 314.031 20.6989 313.985C20.7057 313.939 20.7034 313.892 20.692 313.847C20.6807 313.802 20.6605 313.76 20.6328 313.722C20.6051 313.685 20.5702 313.654 20.5303 313.63C20.4904 313.606 20.4462 313.59 20.4001 313.583C20.3541 313.577 20.3072 313.579 20.2621 313.59C20.217 313.602 20.1746 313.622 20.1372 313.649L16.0687 316.667C16.0215 316.702 15.9837 316.749 15.9588 316.802C15.9339 316.855 15.9226 316.914 15.9261 316.972C15.9295 317.031 15.9476 317.088 15.9786 317.138C16.0096 317.188 16.0526 317.229 16.1036 317.258L20.3327 319.679C20.4125 319.725 20.507 319.738 20.5962 319.716Z" fill="#FFD900"/>
<path d="M26.6327 321.755C26.667 321.747 26.6997 321.733 26.7298 321.714C26.7696 321.69 26.8043 321.659 26.8318 321.621C26.8593 321.583 26.8791 321.541 26.8902 321.496C26.9012 321.451 26.9032 321.404 26.8961 321.358C26.8889 321.312 26.8728 321.268 26.8485 321.228L21.0666 311.735C21.0175 311.655 20.9387 311.598 20.8475 311.576C20.7563 311.554 20.6601 311.569 20.58 311.618C20.5 311.667 20.4424 311.745 20.4201 311.836C20.3978 311.927 20.4124 312.023 20.4609 312.103L26.2428 321.596C26.2822 321.661 26.3414 321.711 26.4116 321.74C26.4817 321.769 26.5592 321.774 26.6327 321.755Z" fill="#FFD900"/>
<path d="M556.641 387.304C556.208 387.523 555.769 387.743 555.336 387.955C544.135 393.548 535.173 396.727 522.915 400.21C521.88 388.67 520.881 368.386 519.909 355.812C519.654 352.548 519.399 349.808 519.151 347.875C519.088 346.848 518.878 345.834 518.527 344.866L518.569 347.875L518.676 355.812L519.293 401.202C504.045 405.231 488.381 407.485 472.615 407.921C471.792 407.942 470.984 407.956 470.204 407.97C469.928 407.977 469.658 407.984 469.389 407.984C468.503 407.991 467.623 407.998 466.737 407.998C450.122 408.011 433.567 406.007 417.436 402.03C417.783 390.61 418.131 370.552 418.464 355.812C418.535 352.93 418.599 350.247 418.67 347.875C418.804 342.806 418.946 339.153 419.081 337.928C418.961 338.145 418.869 338.375 418.804 338.615C418.148 341.667 417.7 344.762 417.464 347.875C417.216 350.247 416.968 352.93 416.72 355.812C415.401 371.126 414.026 391.948 412.608 400.777C404.168 398.476 395.887 395.631 387.816 392.26C383.562 390.49 379.384 388.58 375.281 386.532C376.061 381.434 376.876 375.721 377.713 369.795C378.365 365.2 379.039 360.478 379.726 355.812C380.79 348.604 416.919 270.774 425.433 268.048L425.646 267.992L425.795 268.055L440.293 263.609L442.413 262.958L443.838 262.519L448.857 258.703L451.587 256.628L454.146 254.681L459.151 250.879L490.14 252.784L496.173 267.291L509.686 272.226L509.92 272.119L510.126 272.034L510.338 272.091C518.85 274.816 526.174 280.364 531.097 287.816C531.763 288.814 532.571 290.131 533.486 291.724C534.266 293.076 535.117 294.62 536.038 296.326C537.35 298.754 538.782 301.494 540.299 304.461C540.632 305.112 540.973 305.778 541.313 306.45C541.944 307.696 542.584 308.968 543.234 310.266C544.744 313.275 546.304 316.419 547.864 319.612C549.218 322.38 550.586 328.072 551.933 335.315C553.046 341.333 554.152 348.427 555.223 355.812C556.627 365.384 555.131 376.846 556.4 385.654C556.478 386.213 556.563 386.758 556.641 387.304Z" fill="#3F3D56"/>
<path d="M465.755 245.672C485.66 245.672 501.797 229.558 501.797 209.68C501.797 189.802 485.66 173.688 465.755 173.688C445.851 173.688 429.714 189.802 429.714 209.68C429.714 229.558 445.851 245.672 465.755 245.672Z" fill="#FFB6B6"/>
<path opacity="0.2" d="M408.12 335.284L414.144 312.067L419.464 332.101L408.12 335.284Z" fill="black"/>
<path d="M568.424 320.157C566.268 349.808 568.502 362.863 556.605 387.311C545.781 392.601 534.507 396.918 522.915 400.21C521.71 400.55 520.503 400.881 519.293 401.202C504.045 405.231 488.381 407.485 472.615 407.921C471.792 407.942 470.984 407.956 470.204 407.97C469.928 407.977 469.658 407.984 469.389 407.984C468.503 407.991 467.623 407.998 466.737 407.998C450.122 408.011 433.567 406.007 417.436 402.03C415.82 401.634 414.21 401.216 412.608 400.777C404.168 398.476 395.887 395.631 387.816 392.26C383.562 390.49 379.384 388.58 375.281 386.532C374.352 386.065 373.424 385.597 372.509 385.116C367.809 376.861 365.136 366.821 365.079 354.757C368.333 333.97 561.235 302.23 568.424 320.157Z" fill="#2F2E41"/>
<path opacity="0.2" d="M568.418 325.235C568.528 323.399 568.651 321.503 568.795 319.529C561.606 301.602 368.705 333.342 365.45 354.128C365.459 356.034 365.541 357.884 365.678 359.689C373.559 339.173 556.818 309.006 568.418 325.235Z" fill="black"/>
<path d="M360.282 321.555L376.116 313.649L362.921 278.072L359.444 260.13C358.992 257.799 357.935 255.627 356.38 253.831C354.824 252.036 352.824 250.68 350.579 249.898C348.334 249.116 345.923 248.937 343.587 249.377C341.25 249.817 339.071 250.862 337.266 252.407C334.591 254.697 332.911 257.935 332.581 261.438C332.252 264.941 333.298 268.435 335.499 271.182L348.407 287.296L360.282 321.555Z" fill="#FFB6B6"/>
<path d="M376.116 307.061L355.004 317.602L371.026 367.735C372.176 371.335 374.238 374.577 377.013 377.147C379.787 379.717 383.18 381.527 386.861 382.402C391.4 383.482 396.165 383.089 400.466 381.282C404.766 379.475 408.379 376.346 410.779 372.351L453.264 299.63C456.274 294.619 457.204 288.63 455.853 282.944C454.503 277.258 450.979 272.325 446.035 269.198C443.377 267.517 440.393 266.413 437.279 265.959C434.164 265.505 430.989 265.711 427.96 266.564C424.931 267.416 422.115 268.896 419.697 270.907C417.278 272.918 415.31 275.415 413.922 278.236L387.991 333.415L376.116 307.061Z" fill="#3F3D56"/>
<path d="M148.533 243.188C170.434 243.188 188.189 225.458 188.189 203.586C188.189 181.715 170.434 163.984 148.533 163.984C126.632 163.984 108.877 181.715 108.877 203.586C108.877 225.458 126.632 243.188 148.533 243.188Z" fill="#A0616A"/>
<path d="M109.353 176.296C112.578 171.956 117.212 168.871 120.757 164.787C122.702 162.547 124.317 160.009 126.503 158.003C130.566 154.277 136.248 152.75 141.76 152.56C147.802 152.405 153.796 153.673 159.256 156.261C164.716 158.848 169.489 162.683 173.19 167.455C176.071 165.768 178.953 164.081 181.834 162.394C182.973 165.386 184.111 168.378 185.25 171.371C186.184 170.56 187.376 170.105 188.613 170.088C189.851 170.071 191.055 170.491 192.012 171.276C192.969 172.06 193.616 173.158 193.84 174.374C194.064 175.59 193.85 176.845 193.235 177.918C193.921 175.802 197.063 175.353 198.795 176.751C200.527 178.149 200.991 180.637 200.709 182.843C200.354 185.263 199.283 187.522 197.632 189.33C195.981 191.137 193.827 192.411 191.446 192.986C187.686 193.822 183.309 192.943 180.3 195.345C177.887 197.271 177.158 200.777 174.696 202.638C171.661 204.933 167.373 203.872 163.601 204.378C157.002 205.266 151.776 212.006 152.569 218.608C151.972 216.525 151.345 214.381 149.99 212.689C148.635 210.997 146.352 209.852 144.274 210.474C140.838 211.503 140.276 216.179 141.109 219.663C143.317 228.902 151.686 243.837 151.686 243.837C140.819 248.118 127.873 244.07 119.489 235.947C111.104 227.824 106.738 216.322 104.835 204.812C103.222 195.052 103.451 184.241 109.353 176.296Z" fill="#2F2E41"/>
<path d="M510.922 229.521C518.466 212.247 514.192 196.351 504.995 187.919V187.912C501.379 179.819 496.572 173.575 491.071 172.109C488.412 170.403 485.832 168.399 482.967 167.38C481.633 166.881 480.212 166.657 478.789 166.721C477.366 166.786 475.97 167.137 474.687 167.755L473.226 167.365C471.986 164.201 470.532 164.137 468.916 166.218C462.691 163.323 457.083 162.027 452.092 162.027C435.814 162.027 426.187 175.791 423.634 192.429L437.239 196.046L441.968 188.52L439.785 196.726L447.292 198.716C458.721 213.576 445.045 247.858 427.711 266.931C431.837 265.791 435.947 264.829 440.04 264.043L454.914 242.265L445.697 262.089C450.483 261.388 456.587 262.06 463.258 263.413C465.506 260.481 466.69 256.573 465.527 253.09C467.428 256.764 468.739 260.713 469.412 264.793C483.492 268.227 502.698 269.99 513.049 271.293C521.412 268.566 521.434 237.776 510.922 229.521Z" fill="#2F2E41"/>
<path d="M515.83 170.763C521.356 183.119 510.206 188.434 499.991 188.284C490.761 188.149 482.917 181.673 482.445 172.467C482.219 168.046 483.761 163.716 486.731 160.43C489.702 157.144 493.858 155.171 498.285 154.945C507.504 154.474 512.066 162.345 515.83 170.763Z" fill="#2F2E41"/>
<path d="M259.467 371.918L250.365 356.756L280.631 333.825L293.215 320.557C294.85 318.833 296.909 317.568 299.187 316.888C301.465 316.208 303.882 316.137 306.196 316.681C308.51 317.226 310.64 318.368 312.374 319.993C314.108 321.618 315.384 323.668 316.075 325.94C317.1 329.306 316.775 332.938 315.169 336.07C313.563 339.201 310.801 341.587 307.467 342.724L287.912 349.391L259.467 371.918Z" fill="#A0616A"/>
<path d="M266.046 371.418L251.874 383.213L248.053 386.392L247.606 386.76C246.621 387.249 245.628 387.73 244.629 388.204C241.637 389.628 238.607 390.98 235.54 392.261C227.469 395.632 219.187 398.478 210.747 400.778C209.145 401.217 207.536 401.635 205.919 402.032C204.934 402.272 203.941 402.513 202.949 402.74C202.325 402.888 201.694 403.03 201.063 403.164C200.297 403.334 199.532 403.504 198.766 403.66C197.965 403.83 197.164 403.993 196.363 404.149C194.207 402.1 192.491 399.636 191.318 396.904C190.146 394.173 189.542 391.233 189.542 388.261C189.542 388.07 189.542 387.872 189.549 387.673L191.825 329.384L192.832 303.549C192.987 297.707 195.424 292.156 199.622 288.084C203.82 284.012 209.447 281.741 215.299 281.757C215.98 281.757 216.653 281.792 217.32 281.856C217.802 282.479 218.248 283.123 218.681 283.775C219.858 285.516 221.446 288.27 223.317 291.725C224.09 293.149 224.905 294.692 225.763 296.327C226.281 297.312 230.747 311.231 235.093 325.447L233.179 340.294L229.719 367.057L243.913 357.753L253.909 351.197L255.093 353.173L258.177 358.313L264.132 368.225L266.046 371.418Z" fill="#3F3D56"/>
<path d="M258.276 354.759C258.269 355.962 258.241 357.145 258.177 358.313C258.029 361.535 257.655 364.743 257.057 367.913C256.078 373.236 254.333 378.39 251.874 383.213C251.548 383.857 251.201 384.495 250.846 385.118C249.932 385.599 249.003 386.066 248.074 386.534C247.918 386.611 247.762 386.689 247.606 386.76C243.657 388.721 239.635 390.555 235.54 392.261C227.469 395.632 219.187 398.477 210.747 400.778C209.145 401.217 207.536 401.635 205.919 402.032C202.765 402.81 199.579 403.516 196.363 404.149C183.271 406.717 169.96 408.007 156.618 408C155.732 408 154.853 407.993 153.967 407.986C153.697 407.986 153.428 407.979 153.151 407.972C152.371 407.958 151.563 407.943 150.741 407.922C134.974 407.487 119.311 405.232 104.063 401.203C102.85 400.885 101.643 400.554 100.44 400.212C88.8487 396.92 77.5742 392.603 66.7502 387.312C54.8538 362.865 57.087 349.81 54.9318 320.159C59.3557 309.121 134.201 316.916 191.825 329.384C207.465 332.768 221.828 336.499 233.179 340.294C244.905 344.209 253.406 348.188 256.738 351.927C257.516 352.7 258.051 353.685 258.276 354.759Z" fill="#2F2E41"/>
<path opacity="0.2" d="M54.9359 325.235C54.8258 323.399 54.7028 321.503 54.5592 319.529C61.7481 301.602 254.65 333.342 257.904 354.128C257.895 356.034 257.813 357.884 257.676 359.689C249.795 339.173 66.5364 309.006 54.9359 325.235Z" fill="black"/>
</g>
<defs>
<clipPath id="clip0_4_108">
<rect width="624" height="408" fill="white"/>
</clipPath>
</defs>
</svg>
